<?xml version="1.0" encoding="UTF-8" standalone="no"?>
<!DOCTYPE svg PUBLIC "-//W3C//DTD SVG 1.1//EN"
 "http://www.w3.org/Graphics/SVG/1.1/DTD/svg11.dtd">
<!-- Generated by graphviz version 2.38.0 (20140413.2041)
 -->
<!-- Title: G Pages: 1 -->
<svg width="358pt" height="637pt"
 viewBox="0.00 0.00 358.03 637.00" xmlns="http://www.w3.org/2000/svg" xmlns:xlink="http://www.w3.org/1999/xlink">
<g id="graph0" class="graph" transform="scale(1 1) rotate(0) translate(4 633)">
<title>G</title>
<polygon fill="white" stroke="none" points="-4,4 -4,-633 354.032,-633 354.032,4 -4,4"/>
<g id="clust1" class="cluster"><title>cluster_Global</title>
<path fill="none" stroke="gray" d="M20,-8C20,-8 330.032,-8 330.032,-8 336.032,-8 342.032,-14 342.032,-20 342.032,-20 342.032,-609 342.032,-609 342.032,-615 336.032,-621 330.032,-621 330.032,-621 20,-621 20,-621 14,-621 8,-615 8,-609 8,-609 8,-20 8,-20 8,-14 14,-8 20,-8"/>
<text text-anchor="middle" x="175.016" y="-608.2" font-family="Times,serif" font-size="11.00" fill="gray">Global</text>
</g>
<g id="clust2" class="cluster"><title>cluster_\vehicle</title>
<path fill="none" stroke="gray" d="M37.9016,-307C37.9016,-307 295.628,-307 295.628,-307 301.628,-307 307.628,-313 307.628,-319 307.628,-319 307.628,-582 307.628,-582 307.628,-588 301.628,-594 295.628,-594 295.628,-594 37.9016,-594 37.9016,-594 31.9016,-594 25.9016,-588 25.9016,-582 25.9016,-582 25.9016,-319 25.9016,-319 25.9016,-313 31.9016,-307 37.9016,-307"/>
<text text-anchor="middle" x="166.765" y="-581.2" font-family="Times,serif" font-size="11.00" fill="gray">vehicle</text>
</g>
<g id="clust3" class="cluster"><title>cluster_\boarding</title>
<path fill="none" stroke="gray" d="M31.3005,-228C31.3005,-228 318.732,-228 318.732,-228 324.732,-228 330.732,-234 330.732,-240 330.732,-240 330.732,-287 330.732,-287 330.732,-293 324.732,-299 318.732,-299 318.732,-299 31.3005,-299 31.3005,-299 25.3005,-299 19.3005,-293 19.3005,-287 19.3005,-287 19.3005,-240 19.3005,-240 19.3005,-234 25.3005,-228 31.3005,-228"/>
<text text-anchor="middle" x="175.016" y="-286.2" font-family="Times,serif" font-size="11.00" fill="gray">boarding</text>
</g>
<g id="clust4" class="cluster"><title>cluster_\travel</title>
<path fill="none" stroke="gray" d="M28,-95C28,-95 322.032,-95 322.032,-95 328.032,-95 334.032,-101 334.032,-107 334.032,-107 334.032,-208 334.032,-208 334.032,-214 328.032,-220 322.032,-220 322.032,-220 28,-220 28,-220 22,-220 16,-214 16,-208 16,-208 16,-107 16,-107 16,-101 22,-95 28,-95"/>
<text text-anchor="middle" x="175.016" y="-207.2" font-family="Times,serif" font-size="11.00" fill="gray">travel</text>
</g>
<g id="clust5" class="cluster"><title>cluster_\booking</title>
<path fill="none" stroke="gray" d="M234.819,-16C234.819,-16 289.027,-16 289.027,-16 295.027,-16 301.027,-22 301.027,-28 301.027,-28 301.027,-75 301.027,-75 301.027,-81 295.027,-87 289.027,-87 289.027,-87 234.819,-87 234.819,-87 228.819,-87 222.819,-81 222.819,-75 222.819,-75 222.819,-28 222.819,-28 222.819,-22 228.819,-16 234.819,-16"/>
<text text-anchor="middle" x="261.923" y="-74.2" font-family="Times,serif" font-size="11.00" fill="gray">booking</text>
</g>
<!-- \\vehicle\\Ship -->
<g id="node1" class="node"><title>\\vehicle\\Ship</title>
<polygon fill="none" stroke="black" points="288.923,-567 234.923,-567 234.923,-531 288.923,-531 288.923,-567"/>
<text text-anchor="middle" x="261.923" y="-545.7" font-family="Courier,monospace" font-size="11.00">Ship</text>
</g>
<!-- \\vehicle\\Vehicle -->
<g id="node4" class="node"><title>\\vehicle\\Vehicle</title>
<polygon fill="none" stroke="black" points="115.918,-459 33.8962,-459 33.8962,-423 115.918,-423 115.918,-459"/>
<text text-anchor="start" x="41.9016" y="-443.2" font-family="Courier,monospace" font-size="11.00">«abstract»</text>
<text text-anchor="start" x="51.8032" y="-432.2" font-family="Courier,monospace" font-size="11.00">Vehicle</text>
</g>
<!-- \\vehicle\\Ship&#45;&gt;\\vehicle\\Vehicle -->
<g id="edge1" class="edge"><title>\\vehicle\\Ship&#45;&gt;\\vehicle\\Vehicle</title>
<path fill="none" stroke="black" d="M234.629,-539.004C223.104,-534.306 209.557,-528.345 197.814,-522 166.355,-505.003 132.647,-482.218 108.667,-465.143"/>
<polygon fill="none" stroke="black" points="110.459,-462.121 100.295,-459.132 106.377,-467.807 110.459,-462.121"/>
</g>
<!-- \\vehicle\\Bus -->
<g id="node2" class="node"><title>\\vehicle\\Bus</title>
<polygon fill="none" stroke="black" points="288.923,-513 234.923,-513 234.923,-477 288.923,-477 288.923,-513"/>
<text text-anchor="middle" x="261.923" y="-491.7" font-family="Courier,monospace" font-size="11.00">Bus</text>
</g>
<!-- \\vehicle\\Bus&#45;&gt;\\vehicle\\Vehicle -->
<g id="edge3" class="edge"><title>\\vehicle\\Bus&#45;&gt;\\vehicle\\Vehicle</title>
<path fill="none" stroke="black" d="M234.807,-487.378C206.582,-479.14 160.929,-465.815 125.783,-455.557"/>
<polygon fill="none" stroke="black" points="126.752,-452.194 116.172,-452.752 124.791,-458.914 126.752,-452.194"/>
</g>
<!-- \\vehicle\\RentalCar -->
<g id="node3" class="node"><title>\\vehicle\\RentalCar</title>
<polygon fill="none" stroke="black" points="299.834,-459 224.012,-459 224.012,-423 299.834,-423 299.834,-459"/>
<text text-anchor="middle" x="261.923" y="-437.7" font-family="Courier,monospace" font-size="11.00">RentalCar</text>
</g>
<!-- \\vehicle\\RentalCar&#45;&gt;\\vehicle\\Vehicle -->
<g id="edge4" class="edge"><title>\\vehicle\\RentalCar&#45;&gt;\\vehicle\\Vehicle</title>
<path fill="none" stroke="black" d="M223.927,-441C195.883,-441 157.038,-441 126.178,-441"/>
<polygon fill="none" stroke="black" points="126.046,-437.5 116.046,-441 126.046,-444.5 126.046,-437.5"/>
</g>
<!-- \\vehicle\\Flight -->
<g id="node5" class="node"><title>\\vehicle\\Flight</title>
<polygon fill="none" stroke="black" points="289.531,-405 234.315,-405 234.315,-369 289.531,-369 289.531,-405"/>
<text text-anchor="middle" x="261.923" y="-383.7" font-family="Courier,monospace" font-size="11.00">Flight</text>
</g>
<!-- \\vehicle\\Flight&#45;&gt;\\vehicle\\Vehicle -->
<g id="edge5" class="edge"><title>\\vehicle\\Flight&#45;&gt;\\vehicle\\Vehicle</title>
<path fill="none" stroke="black" d="M234.02,-394.852C205.834,-403.079 160.906,-416.192 126.134,-426.341"/>
<polygon fill="none" stroke="black" points="124.778,-423.09 116.159,-429.252 126.739,-429.81 124.778,-423.09"/>
</g>
<!-- \\vehicle\\Cab -->
<g id="node6" class="node"><title>\\vehicle\\Cab</title>
<polygon fill="none" stroke="black" points="288.923,-351 234.923,-351 234.923,-315 288.923,-315 288.923,-351"/>
<text text-anchor="middle" x="261.923" y="-329.7" font-family="Courier,monospace" font-size="11.00">Cab</text>
</g>
<!-- \\vehicle\\Cab&#45;&gt;\\vehicle\\Vehicle -->
<g id="edge6" class="edge"><title>\\vehicle\\Cab&#45;&gt;\\vehicle\\Vehicle</title>
<path fill="none" stroke="black" d="M234.629,-342.996C223.104,-347.694 209.557,-353.655 197.814,-360 166.355,-376.997 132.647,-399.782 108.667,-416.857"/>
<polygon fill="none" stroke="black" points="106.377,-414.193 100.295,-422.868 110.459,-419.879 106.377,-414.193"/>
</g>
<!-- \\boarding\\BoardingPassImpl -->
<g id="node7" class="node"><title>\\boarding\\BoardingPassImpl</title>
<polygon fill="none" stroke="black" points="322.541,-272 201.305,-272 201.305,-236 322.541,-236 322.541,-272"/>
<text text-anchor="middle" x="261.923" y="-250.7" font-family="Courier,monospace" font-size="11.00">BoardingPassImpl</text>
</g>
<!-- \\boarding\\BoardingPass -->
<g id="node8" class="node"><title>\\boarding\\BoardingPass</title>
<polygon fill="none" stroke="black" points="122.62,-272 27.1939,-272 27.1939,-236 122.62,-236 122.62,-272"/>
<text text-anchor="middle" x="74.907" y="-250.7" font-family="Courier,monospace" font-size="11.00">BoardingPass</text>
</g>
<!-- \\boarding\\BoardingPassImpl&#45;&gt;\\boarding\\BoardingPass -->
<g id="edge2" class="edge"><title>\\boarding\\BoardingPassImpl&#45;&gt;\\boarding\\BoardingPass</title>
<path fill="none" stroke="black" stroke-dasharray="1,5" d="M201.109,-254C179.144,-254 154.356,-254 132.667,-254"/>
<polygon fill="none" stroke="black" points="132.619,-250.5 122.619,-254 132.619,-257.5 132.619,-250.5"/>
</g>
<!-- \\travel\\TravelPlannerImpl -->
<g id="node9" class="node"><title>\\travel\\TravelPlannerImpl</title>
<polygon fill="none" stroke="black" points="326.142,-193 197.705,-193 197.705,-157 326.142,-157 326.142,-193"/>
<text text-anchor="middle" x="261.923" y="-171.7" font-family="Courier,monospace" font-size="11.00">TravelPlannerImpl</text>
</g>
<!-- \\travel\\TravelPlanner -->
<g id="node11" class="node"><title>\\travel\\TravelPlanner</title>
<polygon fill="none" stroke="black" points="125.721,-193 24.0928,-193 24.0928,-157 125.721,-157 125.721,-193"/>
<text text-anchor="middle" x="74.907" y="-171.7" font-family="Courier,monospace" font-size="11.00">TravelPlanner</text>
</g>
<!-- \\travel\\TravelPlannerImpl&#45;&gt;\\travel\\TravelPlanner -->
<g id="edge7" class="edge"><title>\\travel\\TravelPlannerImpl&#45;&gt;\\travel\\TravelPlanner</title>
<path fill="none" stroke="black" stroke-dasharray="1,5" d="M197.769,-175C177.8,-175 155.796,-175 136.045,-175"/>
<polygon fill="none" stroke="black" points="135.945,-171.5 125.945,-175 135.944,-178.5 135.945,-171.5"/>
</g>
<!-- \\travel\\TravelPlan -->
<g id="node10" class="node"><title>\\travel\\TravelPlan</title>
<polygon fill="none" stroke="black" points="302.934,-139 220.912,-139 220.912,-103 302.934,-103 302.934,-139"/>
<text text-anchor="middle" x="261.923" y="-117.7" font-family="Courier,monospace" font-size="11.00">TravelPlan</text>
</g>
<!-- \\booking\\Booking -->
<g id="node12" class="node"><title>\\booking\\Booking</title>
<polygon fill="none" stroke="black" points="293.131,-60 230.715,-60 230.715,-24 293.131,-24 293.131,-60"/>
<text text-anchor="middle" x="261.923" y="-38.7" font-family="Courier,monospace" font-size="11.00">Booking</text>
</g>
</g>
</svg>
